<svg xmlns="http://www.w3.org/2000/svg" xmlns:xlink="http://www.w3.org/1999/xlink" xml:space="preserve" width="2048px" height="2048px" style="shape-rendering:geometricPrecision; text-rendering:geometricPrecision; image-rendering:optimizeQuality; fill-rule:evenodd; clip-rule:evenodd" viewBox="0 0 2048 2048">
 <defs fill="#ffffff">
  <style type="text/css">
   <![CDATA[
    .fil0 {fill:none}
    .fil1 {fill:#ffffff;fill-rule:nonzero}
    .fil2 {fill:#ffffff;fill-rule:nonzero}
   ]]>
  </style>
 </defs>
 <g id="Layer_x0020_1">
  <metadata id="CorelCorpID_0Corel-Layer" fill="#ffffff"/>
  <g id="_526141896">
   <rect id="_526166376" class="fil0" width="2048" height="2048" fill="#ffffff"/>
   <rect id="_526149792" class="fil0" x="255.999" y="255.999" width="1536" height="1536" fill="#ffffff"/>
  </g>
  <polygon class="fil1" points="1261.68,1389.68 1044.16,1607.18 1023.49,1627.85 1002.82,1607.18 961.471,1565.83 940.8,1545.15 961.471,1524.49 1178.99,1306.99 " fill="#ffffff"/>
  <path class="fil2" d="M714.399 842.397l0.441733 -0.441733 408.589 -408.61c36.3874,-36.3886 79.017,-64.7032 125.59,-83.993 46.4847,-19.2532 96.6083,-29.354 148.065,-29.354 51.463,0 101.595,10.1008 148.09,29.3587 46.4433,19.2366 89.0658,47.5867 125.567,84.1075 36.4453,36.4677 64.7741,79.0666 84.0213,125.521 19.252,46.4658 29.3587,96.5611 29.3587,148.011 0,51.4595 -10.0973,101.574 -29.3481,148.054 -19.2851,46.5626 -47.5961,89.1851 -83.9847,125.57l-408.937 408.892 -0.168898 0.168898 -82.6926 -82.6926 0.210236 -0.210236 408.897 -408.853c25.6524,-25.6488 45.4441,-55.2945 58.7457,-87.4111 13.3417,-32.2134 20.3268,-67.2284 20.3268,-103.518 0,-36.202 -6.99567,-71.165 -20.341,-103.37l0 -0.113386c-13.3701,-32.2689 -33.1843,-61.976 -58.7918,-87.5965 -25.5071,-25.5236 -55.1563,-45.2764 -87.4028,-58.6311 -32.2276,-13.3476 -67.2591,-20.3351 -103.55,-20.3351 -36.2894,0 -71.3115,6.98859 -103.532,20.3327 -32.126,13.3051 -61.78,33.1004 -87.4312,58.7528l-408.631 408.652 -0.400394 0.400394 -82.6914 -82.6914z" fill="#ffffff"/>
  <path class="fil1" d="M1149.21 1277.21l-360.696 360.733c-28.8744,28.878 -62.7556,51.3709 -99.8009,66.7158 -36.9567,15.3095 -76.7682,23.3421 -117.604,23.3421 -40.8366,0 -80.6493,-8.03268 -117.605,-23.3398 -37.0465,-15.3449 -70.9312,-37.8378 -99.8139,-66.7158l-0.00708662 -0.00826772c-59.8725,-59.8701 -89.8099,-138.611 -89.8075,-217.403 0.0011811,-78.7926 29.9398,-157.533 89.8052,-217.407l0.00826772 -0.00826772 360.705 -360.723 82.6914 82.6914 -360.704 360.723 -0.00708662 0.00590552c-37.187,37.1929 -55.7859,85.982 -55.7871,134.715 -0.0011811,48.7323 18.5941,97.5225 55.7847,134.712l0.00708662 0.00708662c18.1441,18.1429 39.0544,32.1189 61.6571,41.4792 22.6914,9.39804 47.4059,14.3197 73.0725,14.3197 25.6618,0 50.3764,-4.92166 73.0666,-14.3197 22.5992,-9.36142 43.5024,-23.3351 61.643,-41.4768l360.698 -360.735 82.6926 82.6926z" fill="#ffffff"/>
  <path class="fil2" d="M828.166 956.165l0.386221 -0.38504 155.778 -155.797c44.1721,-44.1768 102.294,-66.2599 160.474,-66.2611 58.1162,-0.0011811 116.215,22.089 160.41,66.254 21.4748,21.4595 38.1307,46.454 49.3949,73.6193 11.3221,27.313 17.2725,56.7367 17.2725,86.9068 0,29.7709 -6.06378,59.2914 -17.4272,86.7249 -11.4036,27.5292 -28.0181,52.7433 -49.0748,73.8024l-155.942 155.958 -0.22441 0.225591 -82.6926 -82.6926 0.265748 -0.266929 155.899 -155.914c10.3228,-10.3228 18.398,-22.513 23.837,-35.6457 5.47678,-13.2177 8.40946,-27.5929 8.40946,-42.1914 0,-14.8335 -2.83583,-29.0799 -8.24883,-42.1335 -5.4815,-13.2165 -13.5413,-25.3193 -23.9162,-35.687 -21.5079,-21.4937 -49.7445,-32.2488 -77.9516,-32.2488 -28.1209,0 -56.2949,10.7433 -77.7898,32.2406l-155.823 155.841 -0.343701 0.343701 -82.6926 -82.6926z" fill="#ffffff"/>
  <polygon class="fil1" points="610.663,1173.69 828.166,956.165 910.859,1038.86 693.357,1256.38 672.689,1277.06 652.014,1256.38 610.663,1215.04 589.993,1194.37 " fill="#ffffff"/>
 </g>
</svg>